<svg xmlns="http://www.w3.org/2000/svg" xmlns:xlink="http://www.w3.org/1999/xlink" width="1180" height="1058.66"><rect width="1180" height="1058.66" rx="5" ry="5" class="a"/><svg y="0%" x="0%"><circle cx="20" cy="20" r="6" fill="#ff5f58"/><circle cx="40" cy="20" r="6" fill="#ffbd2e"/><circle cx="60" cy="20" r="6" fill="#18c132"/></svg><svg height="998.66" viewBox="0 0 114 99.866" width="1140" x="15" xmlns="http://www.w3.org/2000/svg" xmlns:xlink="http://www.w3.org/1999/xlink" y="50"><style>@keyframes i{0%{transform:translateX(0)}.27%{transform:translateX(-114px)}5.79%{transform:translateX(-228px)}6.17%{transform:translateX(-342px)}6.46%{transform:translateX(-456px)}7.03%{transform:translateX(-570px)}7.69%{transform:translateX(-684px)}7.92%{transform:translateX(-798px)}8.21%{transform:translateX(-912px)}8.46%{transform:translateX(-1026px)}8.87%{transform:translateX(-1140px)}11.06%{transform:translateX(-1254px)}11.52%{transform:translateX(-1368px)}11.86%{transform:translateX(-1482px)}12.22%{transform:translateX(-1596px)}12.44%{transform:translateX(-1710px)}12.68%{transform:translateX(-1824px)}12.96%{transform:translateX(-1938px)}16.76%{transform:translateX(-2052px)}16.89%{transform:translateX(-2166px)}17.41%{transform:translateX(-2280px)}17.49%{transform:translateX(-2394px)}17.67%{transform:translateX(-2508px)}18.01%{transform:translateX(-2622px)}18.24%{transform:translateX(-2736px)}18.46%{transform:translateX(-2850px)}20.37%{transform:translateX(-2964px)}21.75%{transform:translateX(-3078px)}21.96%{transform:translateX(-3192px)}22.21%{transform:translateX(-3306px)}22.41%{transform:translateX(-3420px)}22.55%{transform:translateX(-3534px)}22.88%{transform:translateX(-3648px)}23.28%{transform:translateX(-3762px)}23.58%{transform:translateX(-3876px)}23.79%{transform:translateX(-3990px)}23.99%{transform:translateX(-4104px)}24.76%{transform:translateX(-4218px)}25.25%{transform:translateX(-4332px)}25.63%{transform:translateX(-4446px)}26.12%{transform:translateX(-4560px)}28.64%{transform:translateX(-4788px)}28.99%{transform:translateX(-4902px)}32.07%{transform:translateX(-5016px)}35.11%{transform:translateX(-5130px)}38.19%{transform:translateX(-5244px)}38.4%{transform:translateX(-5586px)}47.09%{transform:translateX(-5814px)}47.58%{transform:translateX(-6042px)}48.21%{transform:translateX(-6156px)}55.5%{transform:translateX(-6270px)}60.59%{transform:translateX(-6384px)}60.82%{transform:translateX(-6498px)}61.09%{transform:translateX(-6612px)}63.44%{transform:translateX(-6726px)}63.72%{transform:translateX(-6840px)}66.38%{transform:translateX(-6954px)}66.51%{transform:translateX(-7068px)}66.81%{transform:translateX(-7182px)}67.04%{transform:translateX(-7296px)}67.61%{transform:translateX(-7410px)}68.64%{transform:translateX(-7524px)}68.84%{transform:translateX(-7638px)}69.14%{transform:translateX(-7752px)}69.24%{transform:translateX(-7866px)}69.76%{transform:translateX(-7980px)}70.2%{transform:translateX(-8094px)}70.56%{transform:translateX(-8208px)}70.77%{transform:translateX(-8322px)}70.97%{transform:translateX(-8436px)}71.74%{transform:translateX(-8550px)}73.51%{transform:translateX(-8664px)}73.89%{transform:translateX(-8778px)}74.18%{transform:translateX(-8892px)}77.24%{transform:translateX(-9120px)}77.87%{transform:translateX(-9234px)}81.26%{transform:translateX(-9348px)}84.65%{transform:translateX(-9576px)}96.89%{transform:translateX(-9690px)}to{transform:translateX(-9804px)}}.a{fill:#282d35}.f{fill:#b9c0cb;white-space:pre}</style><g font-family="Monaco,Consolas,Menlo,'Bitstream Vera Sans Mono','Powerline Symbols',monospace" font-size="1.67"><defs><symbol id="1"><text y="1.67" class="f">[puru@blackhole</text><text x="16.032" y="1.67" class="f">~]$</text></symbol><symbol id="2"><text y="1.67" class="f">[puru@blackhole</text><text x="16.032" y="1.67" class="f">~]$</text><text x="20.04" y="1.67" class="f">ssl-hand</text></symbol><symbol id="3"><text y="1.67" class="f">[puru@blackhole</text><text x="16.032" y="1.67" class="f">~]$</text><text x="20.04" y="1.67" class="f">ssl-handshake</text></symbol><symbol id="4"><text y="1.67" class="f">[puru@blackhole</text><text x="16.032" y="1.67" class="f">~]$</text><text x="20.04" y="1.67" class="f">ssl-handshake</text><text x="34.068" y="1.67" class="f">tuladhar.github.com:443</text></symbol><symbol id="5"><text y="1.67" class="f">Starting</text><text x="9.018" y="1.67" class="f">ssl-handshake</text><text x="23.046" y="1.67" class="f">v1.3</text><text x="28.056" y="1.67" class="f">(</text><text x="30.06" y="1.67" class="f">https://tuladhar.github.com/ssl-handshake</text><text x="72.144" y="1.67" class="f">)</text><text x="74.148" y="1.67" class="f">at</text><text x="77.154" y="1.67" class="f">Fri,</text><text x="82.164" y="1.67" class="f">24</text><text x="85.17" y="1.67" class="f">Dec</text><text x="89.178" y="1.67" class="f">2021</text><text x="94.188" y="1.67" class="f">16:15:06</text><text x="103.206" y="1.67" class="f">+0545</text></symbol><symbol id="6"><text y="1.67" class="f">SSL</text><text x="4.008" y="1.67" class="f">handshake</text><text x="14.028" y="1.67" class="f">with</text><text x="19.038" y="1.67" class="f">tuladhar.github.com:443:</text><text x="44.088" y="1.67" class="f">time=124</text><text x="53.106" y="1.67" class="f">ms</text></symbol><symbol id="7"><text y="1.67" class="f">SSL</text><text x="4.008" y="1.67" class="f">handshake</text><text x="14.028" y="1.67" class="f">with</text><text x="19.038" y="1.67" class="f">tuladhar.github.com:443:</text><text x="44.088" y="1.67" class="f">time=114</text><text x="53.106" y="1.67" class="f">ms</text></symbol><symbol id="8"><text y="1.67" class="f">SSL</text><text x="4.008" y="1.67" class="f">handshake</text><text x="14.028" y="1.67" class="f">with</text><text x="19.038" y="1.67" class="f">tuladhar.github.com:443:</text><text x="44.088" y="1.67" class="f">time=103</text><text x="53.106" y="1.67" class="f">ms</text></symbol><symbol id="9"><text y="1.67" class="f">^C</text></symbol><symbol id="10"><text y="1.67" class="f">---</text><text x="4.008" y="1.67" class="f">tuladhar.github.com:443</text><text x="28.056" y="1.67" class="f">handshake</text><text x="38.076" y="1.67" class="f">statistics</text><text x="49.098" y="1.67" class="f">---</text></symbol><symbol id="11"><text y="1.67" class="f">4</text><text x="2.004" y="1.67" class="f">handshakes</text><text x="13.026" y="1.67" class="f">sent,</text><text x="19.038" y="1.67" class="f">finished:</text><text x="29.058" y="1.67" class="f">4,</text><text x="32.064" y="1.67" class="f">failed:</text><text x="40.08" y="1.67" class="f">0,</text><text x="43.086" y="1.67" class="f">time:</text><text x="49.098" y="1.67" class="f">455</text><text x="53.106" y="1.67" class="f">ms</text></symbol><symbol id="12"><text y="1.67" class="f">rtt</text><text x="4.008" y="1.67" class="f">max:</text><text x="9.018" y="1.67" class="f">124</text><text x="13.026" y="1.67" class="f">ms,</text><text x="17.034" y="1.67" class="f">avg:</text><text x="22.044" y="1.67" class="f">113</text><text x="26.052" y="1.67" class="f">ms,</text><text x="30.06" y="1.67" class="f">min:</text><text x="35.07" y="1.67" class="f">103</text><text x="39.078" y="1.67" class="f">ms</text></symbol><symbol id="13"><text y="1.67" class="f">[puru@blackhole</text><text x="16.032" y="1.67" class="f">~]$</text><text x="20.04" y="1.67" class="f">ssl-handshake</text><text x="34.068" y="1.67" class="f">-c</text></symbol><symbol id="14"><text y="1.67" class="f">[puru@blackhole</text><text x="16.032" y="1.67" class="f">~]$</text><text x="20.04" y="1.67" class="f">ssl-handshake</text><text x="34.068" y="1.67" class="f">-c</text><text x="37.074" y="1.67" class="f">3</text></symbol><symbol id="15"><text y="1.67" class="f">[puru@blackhole</text><text x="16.032" y="1.67" class="f">~]$</text><text x="20.04" y="1.67" class="f">ssl-handshake</text><text x="34.068" y="1.67" class="f">-c</text><text x="37.074" y="1.67" class="f">3</text><text x="39.078" y="1.67" class="f">imap.gmail.com:993</text></symbol><symbol id="16"><text y="1.67" class="f">Starting</text><text x="9.018" y="1.67" class="f">ssl-handshake</text><text x="23.046" y="1.67" class="f">v1.3</text><text x="28.056" y="1.67" class="f">(</text><text x="30.06" y="1.67" class="f">https://tuladhar.github.com/ssl-handshake</text><text x="72.144" y="1.67" class="f">)</text><text x="74.148" y="1.67" class="f">at</text><text x="77.154" y="1.67" class="f">Fri,</text><text x="82.164" y="1.67" class="f">24</text><text x="85.17" y="1.67" class="f">Dec</text><text x="89.178" y="1.67" class="f">2021</text><text x="94.188" y="1.67" class="f">16:15:24</text><text x="103.206" y="1.67" class="f">+0545</text></symbol><symbol id="17"><text y="1.67" class="f">SSL</text><text x="4.008" y="1.67" class="f">handshake</text><text x="14.028" y="1.67" class="f">with</text><text x="19.038" y="1.67" class="f">imap.gmail.com:993:</text><text x="39.078" y="1.67" class="f">time=227</text><text x="48.096" y="1.67" class="f">ms</text></symbol><symbol id="18"><text y="1.67" class="f">SSL</text><text x="4.008" y="1.67" class="f">handshake</text><text x="14.028" y="1.67" class="f">with</text><text x="19.038" y="1.67" class="f">imap.gmail.com:993:</text><text x="39.078" y="1.67" class="f">time=228</text><text x="48.096" y="1.67" class="f">ms</text></symbol><symbol id="19"><text y="1.67" class="f">---</text><text x="4.008" y="1.67" class="f">imap.gmail.com:993</text><text x="23.046" y="1.67" class="f">handshake</text><text x="33.066" y="1.67" class="f">statistics</text><text x="44.088" y="1.67" class="f">---</text></symbol><symbol id="20"><text y="1.67" class="f">3</text><text x="2.004" y="1.67" class="f">handshakes</text><text x="13.026" y="1.67" class="f">sent,</text><text x="19.038" y="1.67" class="f">finished:</text><text x="29.058" y="1.67" class="f">3,</text><text x="32.064" y="1.67" class="f">failed:</text><text x="40.08" y="1.67" class="f">0,</text><text x="43.086" y="1.67" class="f">time:</text><text x="49.098" y="1.67" class="f">683</text><text x="53.106" y="1.67" class="f">ms</text></symbol><symbol id="21"><text y="1.67" class="f">rtt</text><text x="4.008" y="1.67" class="f">max:</text><text x="9.018" y="1.67" class="f">228</text><text x="13.026" y="1.67" class="f">ms,</text><text x="17.034" y="1.67" class="f">avg:</text><text x="22.044" y="1.67" class="f">227</text><text x="26.052" y="1.67" class="f">ms,</text><text x="30.06" y="1.67" class="f">min:</text><text x="35.07" y="1.67" class="f">227</text><text x="39.078" y="1.67" class="f">ms</text></symbol><symbol id="a"><path fill="transparent" d="M0 0h114v46H0z"/></symbol><symbol id="b"><path fill="#6f7683" d="M0 0h1.102v2.171H0z"/></symbol></defs><path class="a" d="M0 0h114v99.866H0z"/><g style="animation-duration:36.250522s;animation-iteration-count:infinite;animation-name:i;animation-timing-function:steps(1,end)"><svg width="9918"><svg><use xlink:href="#a"/><use xlink:href="#b" x="-.004"/></svg><svg x="114"><use xlink:href="#a"/><use xlink:href="#b" x="19.996"/><use xlink:href="#1"/></svg><svg x="228"><use xlink:href="#a"/><use xlink:href="#b" x="20.996"/><text y="1.67" class="f">[puru@blackhole</text><text x="16.032" y="1.67" class="f">~]$</text><text x="20.04" y="1.67" class="f">s</text></svg><svg x="342"><use xlink:href="#a"/><use xlink:href="#b" x="21.996"/><text y="1.67" class="f">[puru@blackhole</text><text x="16.032" y="1.67" class="f">~]$</text><text x="20.04" y="1.67" class="f">ss</text></svg><svg x="456"><use xlink:href="#a"/><use xlink:href="#b" x="22.996"/><text y="1.67" class="f">[puru@blackhole</text><text x="16.032" y="1.67" class="f">~]$</text><text x="20.04" y="1.67" class="f">ssl</text></svg><svg x="570"><use xlink:href="#a"/><use xlink:href="#b" x="23.996"/><text y="1.67" class="f">[puru@blackhole</text><text x="16.032" y="1.67" class="f">~]$</text><text x="20.04" y="1.67" class="f">ssl-</text></svg><svg x="684"><use xlink:href="#a"/><use xlink:href="#b" x="24.996"/><text y="1.67" class="f">[puru@blackhole</text><text x="16.032" y="1.67" class="f">~]$</text><text x="20.04" y="1.67" class="f">ssl-h</text></svg><svg x="798"><use xlink:href="#a"/><use xlink:href="#b" x="25.996"/><text y="1.67" class="f">[puru@blackhole</text><text x="16.032" y="1.67" class="f">~]$</text><text x="20.04" y="1.67" class="f">ssl-ha</text></svg><svg x="912"><use xlink:href="#a"/><use xlink:href="#b" x="26.996"/><text y="1.67" class="f">[puru@blackhole</text><text x="16.032" y="1.67" class="f">~]$</text><text x="20.04" y="1.67" class="f">ssl-han</text></svg><svg x="1026"><use xlink:href="#a"/><use xlink:href="#b" x="27.996"/><use xlink:href="#2"/></svg><svg x="1140"><use xlink:href="#a"/><use xlink:href="#b" x="28.996"/><text y="1.67" class="f">[puru@blackhole</text><text x="16.032" y="1.67" class="f">~]$</text><text x="20.04" y="1.67" class="f">ssl-handl</text></svg><svg x="1254"><use xlink:href="#a"/><use xlink:href="#b" x="27.996"/><use xlink:href="#2"/></svg><svg x="1368"><use xlink:href="#a"/><use xlink:href="#b" x="28.996"/><text y="1.67" class="f">[puru@blackhole</text><text x="16.032" y="1.67" class="f">~]$</text><text x="20.04" y="1.67" class="f">ssl-hands</text></svg><svg x="1482"><use xlink:href="#a"/><use xlink:href="#b" x="29.996"/><text y="1.67" class="f">[puru@blackhole</text><text x="16.032" y="1.67" class="f">~]$</text><text x="20.04" y="1.67" class="f">ssl-handsh</text></svg><svg x="1596"><use xlink:href="#a"/><use xlink:href="#b" x="30.996"/><text y="1.67" class="f">[puru@blackhole</text><text x="16.032" y="1.67" class="f">~]$</text><text x="20.04" y="1.67" class="f">ssl-handsha</text></svg><svg x="1710"><use xlink:href="#a"/><use xlink:href="#b" x="31.996"/><text y="1.67" class="f">[puru@blackhole</text><text x="16.032" y="1.67" class="f">~]$</text><text x="20.04" y="1.67" class="f">ssl-handshak</text></svg><svg x="1824"><use xlink:href="#a"/><use xlink:href="#b" x="32.996"/><use xlink:href="#3"/></svg><svg x="1938"><use xlink:href="#a"/><use xlink:href="#b" x="33.996"/><use xlink:href="#3"/></svg><svg x="2052"><use xlink:href="#a"/><use xlink:href="#b" x="34.996"/><text y="1.67" class="f">[puru@blackhole</text><text x="16.032" y="1.67" class="f">~]$</text><text x="20.04" y="1.67" class="f">ssl-handshake</text><text x="34.068" y="1.67" class="f">t</text></svg><svg x="2166"><use xlink:href="#a"/><use xlink:href="#b" x="35.996"/><text y="1.67" class="f">[puru@blackhole</text><text x="16.032" y="1.67" class="f">~]$</text><text x="20.04" y="1.67" class="f">ssl-handshake</text><text x="34.068" y="1.67" class="f">tu</text></svg><svg x="2280"><use xlink:href="#a"/><use xlink:href="#b" x="36.996"/><text y="1.67" class="f">[puru@blackhole</text><text x="16.032" y="1.67" class="f">~]$</text><text x="20.04" y="1.67" class="f">ssl-handshake</text><text x="34.068" y="1.67" class="f">tul</text></svg><svg x="2394"><use xlink:href="#a"/><use xlink:href="#b" x="37.996"/><text y="1.67" class="f">[puru@blackhole</text><text x="16.032" y="1.67" class="f">~]$</text><text x="20.04" y="1.67" class="f">ssl-handshake</text><text x="34.068" y="1.67" class="f">tula</text></svg><svg x="2508"><use xlink:href="#a"/><use xlink:href="#b" x="38.996"/><text y="1.67" class="f">[puru@blackhole</text><text x="16.032" y="1.67" class="f">~]$</text><text x="20.04" y="1.67" class="f">ssl-handshake</text><text x="34.068" y="1.67" class="f">tulad</text></svg><svg x="2622"><use xlink:href="#a"/><use xlink:href="#b" x="39.996"/><text y="1.67" class="f">[puru@blackhole</text><text x="16.032" y="1.67" class="f">~]$</text><text x="20.04" y="1.67" class="f">ssl-handshake</text><text x="34.068" y="1.67" class="f">tuladh</text></svg><svg x="2736"><use xlink:href="#a"/><use xlink:href="#b" x="40.996"/><text y="1.67" class="f">[puru@blackhole</text><text x="16.032" y="1.67" class="f">~]$</text><text x="20.04" y="1.67" class="f">ssl-handshake</text><text x="34.068" y="1.67" class="f">tuladha</text></svg><svg x="2850"><use xlink:href="#a"/><use xlink:href="#b" x="41.996"/><text y="1.67" class="f">[puru@blackhole</text><text x="16.032" y="1.67" class="f">~]$</text><text x="20.04" y="1.67" class="f">ssl-handshake</text><text x="34.068" y="1.67" class="f">tuladhar</text></svg><svg x="2964"><use xlink:href="#a"/><use xlink:href="#b" x="42.996"/><text y="1.67" class="f">[puru@blackhole</text><text x="16.032" y="1.67" class="f">~]$</text><text x="20.04" y="1.67" class="f">ssl-handshake</text><text x="34.068" y="1.67" class="f">tuladhar.</text></svg><svg x="3078"><use xlink:href="#a"/><use xlink:href="#b" x="43.996"/><text y="1.67" class="f">[puru@blackhole</text><text x="16.032" y="1.67" class="f">~]$</text><text x="20.04" y="1.67" class="f">ssl-handshake</text><text x="34.068" y="1.67" class="f">tuladhar.g</text></svg><svg x="3192"><use xlink:href="#a"/><use xlink:href="#b" x="44.996"/><text y="1.67" class="f">[puru@blackhole</text><text x="16.032" y="1.67" class="f">~]$</text><text x="20.04" y="1.67" class="f">ssl-handshake</text><text x="34.068" y="1.67" class="f">tuladhar.gi</text></svg><svg x="3306"><use xlink:href="#a"/><use xlink:href="#b" x="45.996"/><text y="1.67" class="f">[puru@blackhole</text><text x="16.032" y="1.67" class="f">~]$</text><text x="20.04" y="1.67" class="f">ssl-handshake</text><text x="34.068" y="1.67" class="f">tuladhar.git</text></svg><svg x="3420"><use xlink:href="#a"/><use xlink:href="#b" x="46.996"/><text y="1.67" class="f">[puru@blackhole</text><text x="16.032" y="1.67" class="f">~]$</text><text x="20.04" y="1.67" class="f">ssl-handshake</text><text x="34.068" y="1.67" class="f">tuladhar.gith</text></svg><svg x="3534"><use xlink:href="#a"/><use xlink:href="#b" x="47.996"/><text y="1.67" class="f">[puru@blackhole</text><text x="16.032" y="1.67" class="f">~]$</text><text x="20.04" y="1.67" class="f">ssl-handshake</text><text x="34.068" y="1.67" class="f">tuladhar.githu</text></svg><svg x="3648"><use xlink:href="#a"/><use xlink:href="#b" x="48.996"/><text y="1.67" class="f">[puru@blackhole</text><text x="16.032" y="1.67" class="f">~]$</text><text x="20.04" y="1.67" class="f">ssl-handshake</text><text x="34.068" y="1.67" class="f">tuladhar.github</text></svg><svg x="3762"><use xlink:href="#a"/><use xlink:href="#b" x="49.996"/><text y="1.67" class="f">[puru@blackhole</text><text x="16.032" y="1.67" class="f">~]$</text><text x="20.04" y="1.67" class="f">ssl-handshake</text><text x="34.068" y="1.67" class="f">tuladhar.github.</text></svg><svg x="3876"><use xlink:href="#a"/><use xlink:href="#b" x="50.996"/><text y="1.67" class="f">[puru@blackhole</text><text x="16.032" y="1.67" class="f">~]$</text><text x="20.04" y="1.67" class="f">ssl-handshake</text><text x="34.068" y="1.67" class="f">tuladhar.github.c</text></svg><svg x="3990"><use xlink:href="#a"/><use xlink:href="#b" x="51.996"/><text y="1.67" class="f">[puru@blackhole</text><text x="16.032" y="1.67" class="f">~]$</text><text x="20.04" y="1.67" class="f">ssl-handshake</text><text x="34.068" y="1.67" class="f">tuladhar.github.co</text></svg><svg x="4104"><use xlink:href="#a"/><use xlink:href="#b" x="52.996"/><text y="1.67" class="f">[puru@blackhole</text><text x="16.032" y="1.67" class="f">~]$</text><text x="20.04" y="1.67" class="f">ssl-handshake</text><text x="34.068" y="1.67" class="f">tuladhar.github.com</text></svg><svg x="4218"><use xlink:href="#a"/><use xlink:href="#b" x="53.996"/><text y="1.67" class="f">[puru@blackhole</text><text x="16.032" y="1.67" class="f">~]$</text><text x="20.04" y="1.67" class="f">ssl-handshake</text><text x="34.068" y="1.67" class="f">tuladhar.github.com:</text></svg><svg x="4332"><use xlink:href="#a"/><use xlink:href="#b" x="54.996"/><text y="1.67" class="f">[puru@blackhole</text><text x="16.032" y="1.67" class="f">~]$</text><text x="20.04" y="1.67" class="f">ssl-handshake</text><text x="34.068" y="1.67" class="f">tuladhar.github.com:4</text></svg><svg x="4446"><use xlink:href="#a"/><use xlink:href="#b" x="55.996"/><text y="1.67" class="f">[puru@blackhole</text><text x="16.032" y="1.67" class="f">~]$</text><text x="20.04" y="1.67" class="f">ssl-handshake</text><text x="34.068" y="1.67" class="f">tuladhar.github.com:44</text></svg><svg x="4560"><use xlink:href="#a"/><use xlink:href="#b" x="56.996"/><use xlink:href="#4"/></svg><svg x="4674"><use xlink:href="#a"/><use xlink:href="#b" x="-.004" y="2.146"/><use xlink:href="#4"/></svg><svg x="4788"><use xlink:href="#a"/><use xlink:href="#b" x="-.004" y="4.317"/><use xlink:href="#4"/><use xlink:href="#5" y="2.171"/></svg><svg x="4902"><use xlink:href="#a"/><use xlink:href="#b" x="-.004" y="6.488"/><use xlink:href="#4"/><use xlink:href="#5" y="2.171"/><use xlink:href="#6" y="4.342"/></svg><svg x="5016"><use xlink:href="#a"/><use xlink:href="#b" x="-.004" y="8.659"/><use xlink:href="#4"/><use xlink:href="#5" y="2.171"/><use xlink:href="#6" y="4.342"/><use xlink:href="#7" y="6.513"/></svg><svg x="5130"><use xlink:href="#a"/><use xlink:href="#b" x="-.004" y="10.83"/><use xlink:href="#4"/><use xlink:href="#5" y="2.171"/><use xlink:href="#6" y="4.342"/><use xlink:href="#7" y="6.513"/><use xlink:href="#8" y="8.684"/></svg><svg x="5244"><use xlink:href="#a"/><use xlink:href="#b" x="-.004" y="13.001"/><use xlink:href="#4"/><use xlink:href="#5" y="2.171"/><use xlink:href="#6" y="4.342"/><use xlink:href="#7" y="6.513"/><use xlink:href="#8" y="8.684"/><use xlink:href="#7" y="10.855"/></svg><svg x="5358"><use xlink:href="#a"/><use xlink:href="#b" x="1.996" y="13.001"/><use xlink:href="#4"/><use xlink:href="#5" y="2.171"/><use xlink:href="#6" y="4.342"/><use xlink:href="#7" y="6.513"/><use xlink:href="#8" y="8.684"/><use xlink:href="#7" y="10.855"/><use xlink:href="#9" y="13.026"/></svg><svg x="5472"><use xlink:href="#a"/><use xlink:href="#b" x="-.004" y="21.685"/><use xlink:href="#4"/><use xlink:href="#5" y="2.171"/><use xlink:href="#6" y="4.342"/><use xlink:href="#7" y="6.513"/><use xlink:href="#8" y="8.684"/><use xlink:href="#7" y="10.855"/><use xlink:href="#9" y="13.026"/><use xlink:href="#10" y="15.197"/><use xlink:href="#11" y="17.368"/><use xlink:href="#12" y="19.539"/></svg><svg x="5586"><use xlink:href="#a"/><use xlink:href="#b" x="19.996" y="21.685"/><use xlink:href="#4"/><use xlink:href="#5" y="2.171"/><use xlink:href="#6" y="4.342"/><use xlink:href="#7" y="6.513"/><use xlink:href="#8" y="8.684"/><use xlink:href="#7" y="10.855"/><use xlink:href="#9" y="13.026"/><use xlink:href="#10" y="15.197"/><use xlink:href="#11" y="17.368"/><use xlink:href="#12" y="19.539"/><use xlink:href="#1" y="21.71"/></svg><svg x="5700"><use xlink:href="#a"/><use xlink:href="#b" x="-.004" y="23.856"/><use xlink:href="#4"/><use xlink:href="#5" y="2.171"/><use xlink:href="#6" y="4.342"/><use xlink:href="#7" y="6.513"/><use xlink:href="#8" y="8.684"/><use xlink:href="#7" y="10.855"/><use xlink:href="#9" y="13.026"/><use xlink:href="#10" y="15.197"/><use xlink:href="#11" y="17.368"/><use xlink:href="#12" y="19.539"/><use xlink:href="#1" y="21.71"/></svg><svg x="5814"><use xlink:href="#a"/><use xlink:href="#b" x="19.996" y="23.856"/><use xlink:href="#4"/><use xlink:href="#5" y="2.171"/><use xlink:href="#6" y="4.342"/><use xlink:href="#7" y="6.513"/><use xlink:href="#8" y="8.684"/><use xlink:href="#7" y="10.855"/><use xlink:href="#9" y="13.026"/><use xlink:href="#10" y="15.197"/><use xlink:href="#11" y="17.368"/><use xlink:href="#12" y="19.539"/><use xlink:href="#1" y="21.71"/><use xlink:href="#1" y="23.881"/></svg><svg x="5928"><use xlink:href="#a"/><use xlink:href="#b" x="-.004" y="26.027"/><use xlink:href="#4"/><use xlink:href="#5" y="2.171"/><use xlink:href="#6" y="4.342"/><use xlink:href="#7" y="6.513"/><use xlink:href="#8" y="8.684"/><use xlink:href="#7" y="10.855"/><use xlink:href="#9" y="13.026"/><use xlink:href="#10" y="15.197"/><use xlink:href="#11" y="17.368"/><use xlink:href="#12" y="19.539"/><use xlink:href="#1" y="21.71"/><use xlink:href="#1" y="23.881"/></svg><svg x="6042"><use xlink:href="#a"/><use xlink:href="#b" x="19.996" y="26.027"/><use xlink:href="#4"/><use xlink:href="#5" y="2.171"/><use xlink:href="#6" y="4.342"/><use xlink:href="#7" y="6.513"/><use xlink:href="#8" y="8.684"/><use xlink:href="#7" y="10.855"/><use xlink:href="#9" y="13.026"/><use xlink:href="#10" y="15.197"/><use xlink:href="#11" y="17.368"/><use xlink:href="#12" y="19.539"/><use xlink:href="#1" y="21.71"/><use xlink:href="#1" y="23.881"/><use xlink:href="#1" y="26.052"/></svg><svg x="6156"><use xlink:href="#a"/><use xlink:href="#b" x="56.996" y="26.027"/><use xlink:href="#4"/><use xlink:href="#5" y="2.171"/><use xlink:href="#6" y="4.342"/><use xlink:href="#7" y="6.513"/><use xlink:href="#8" y="8.684"/><use xlink:href="#7" y="10.855"/><use xlink:href="#9" y="13.026"/><use xlink:href="#10" y="15.197"/><use xlink:href="#11" y="17.368"/><use xlink:href="#12" y="19.539"/><use xlink:href="#1" y="21.71"/><use xlink:href="#1" y="23.881"/><use xlink:href="#4" y="26.052"/></svg><svg x="6270"><use xlink:href="#a"/><use xlink:href="#b" x="33.996" y="26.027"/><use xlink:href="#4"/><use xlink:href="#5" y="2.171"/><use xlink:href="#6" y="4.342"/><use xlink:href="#7" y="6.513"/><use xlink:href="#8" y="8.684"/><use xlink:href="#7" y="10.855"/><use xlink:href="#9" y="13.026"/><use xlink:href="#10" y="15.197"/><use xlink:href="#11" y="17.368"/><use xlink:href="#12" y="19.539"/><use xlink:href="#1" y="21.71"/><use xlink:href="#1" y="23.881"/><use xlink:href="#3" y="26.052"/></svg><svg x="6384"><use xlink:href="#a"/><use xlink:href="#b" x="34.996" y="26.027"/><use xlink:href="#4"/><use xlink:href="#5" y="2.171"/><use xlink:href="#6" y="4.342"/><use xlink:href="#7" y="6.513"/><use xlink:href="#8" y="8.684"/><use xlink:href="#7" y="10.855"/><use xlink:href="#9" y="13.026"/><use xlink:href="#10" y="15.197"/><use xlink:href="#11" y="17.368"/><use xlink:href="#12" y="19.539"/><use xlink:href="#1" y="21.71"/><use xlink:href="#1" y="23.881"/><text y="27.722" class="f">[puru@blackhole</text><text x="16.032" y="27.722" class="f">~]$</text><text x="20.04" y="27.722" class="f">ssl-handshake</text><text x="34.068" y="27.722" class="f">-</text></svg><svg x="6498"><use xlink:href="#a"/><use xlink:href="#b" x="35.996" y="26.027"/><use xlink:href="#4"/><use xlink:href="#5" y="2.171"/><use xlink:href="#6" y="4.342"/><use xlink:href="#7" y="6.513"/><use xlink:href="#8" y="8.684"/><use xlink:href="#7" y="10.855"/><use xlink:href="#9" y="13.026"/><use xlink:href="#10" y="15.197"/><use xlink:href="#11" y="17.368"/><use xlink:href="#12" y="19.539"/><use xlink:href="#1" y="21.71"/><use xlink:href="#1" y="23.881"/><use xlink:href="#13" y="26.052"/></svg><svg x="6612"><use xlink:href="#a"/><use xlink:href="#b" x="36.996" y="26.027"/><use xlink:href="#4"/><use xlink:href="#5" y="2.171"/><use xlink:href="#6" y="4.342"/><use xlink:href="#7" y="6.513"/><use xlink:href="#8" y="8.684"/><use xlink:href="#7" y="10.855"/><use xlink:href="#9" y="13.026"/><use xlink:href="#10" y="15.197"/><use xlink:href="#11" y="17.368"/><use xlink:href="#12" y="19.539"/><use xlink:href="#1" y="21.71"/><use xlink:href="#1" y="23.881"/><use xlink:href="#13" y="26.052"/></svg><svg x="6726"><use xlink:href="#a"/><use xlink:href="#b" x="37.996" y="26.027"/><use xlink:href="#4"/><use xlink:href="#5" y="2.171"/><use xlink:href="#6" y="4.342"/><use xlink:href="#7" y="6.513"/><use xlink:href="#8" y="8.684"/><use xlink:href="#7" y="10.855"/><use xlink:href="#9" y="13.026"/><use xlink:href="#10" y="15.197"/><use xlink:href="#11" y="17.368"/><use xlink:href="#12" y="19.539"/><use xlink:href="#1" y="21.71"/><use xlink:href="#1" y="23.881"/><use xlink:href="#14" y="26.052"/></svg><svg x="6840"><use xlink:href="#a"/><use xlink:href="#b" x="38.996" y="26.027"/><use xlink:href="#4"/><use xlink:href="#5" y="2.171"/><use xlink:href="#6" y="4.342"/><use xlink:href="#7" y="6.513"/><use xlink:href="#8" y="8.684"/><use xlink:href="#7" y="10.855"/><use xlink:href="#9" y="13.026"/><use xlink:href="#10" y="15.197"/><use xlink:href="#11" y="17.368"/><use xlink:href="#12" y="19.539"/><use xlink:href="#1" y="21.71"/><use xlink:href="#1" y="23.881"/><use xlink:href="#14" y="26.052"/></svg><svg x="6954"><use xlink:href="#a"/><use xlink:href="#b" x="39.996" y="26.027"/><use xlink:href="#4"/><use xlink:href="#5" y="2.171"/><use xlink:href="#6" y="4.342"/><use xlink:href="#7" y="6.513"/><use xlink:href="#8" y="8.684"/><use xlink:href="#7" y="10.855"/><use xlink:href="#9" y="13.026"/><use xlink:href="#10" y="15.197"/><use xlink:href="#11" y="17.368"/><use xlink:href="#12" y="19.539"/><use xlink:href="#1" y="21.71"/><use xlink:href="#1" y="23.881"/><text y="27.722" class="f">[puru@blackhole</text><text x="16.032" y="27.722" class="f">~]$</text><text x="20.04" y="27.722" class="f">ssl-handshake</text><text x="34.068" y="27.722" class="f">-c</text><text x="37.074" y="27.722" class="f">3</text><text x="39.078" y="27.722" class="f">i</text></svg><svg x="7068"><use xlink:href="#a"/><use xlink:href="#b" x="40.996" y="26.027"/><use xlink:href="#4"/><use xlink:href="#5" y="2.171"/><use xlink:href="#6" y="4.342"/><use xlink:href="#7" y="6.513"/><use xlink:href="#8" y="8.684"/><use xlink:href="#7" y="10.855"/><use xlink:href="#9" y="13.026"/><use xlink:href="#10" y="15.197"/><use xlink:href="#11" y="17.368"/><use xlink:href="#12" y="19.539"/><use xlink:href="#1" y="21.71"/><use xlink:href="#1" y="23.881"/><text y="27.722" class="f">[puru@blackhole</text><text x="16.032" y="27.722" class="f">~]$</text><text x="20.04" y="27.722" class="f">ssl-handshake</text><text x="34.068" y="27.722" class="f">-c</text><text x="37.074" y="27.722" class="f">3</text><text x="39.078" y="27.722" class="f">im</text></svg><svg x="7182"><use xlink:href="#a"/><use xlink:href="#b" x="41.996" y="26.027"/><use xlink:href="#4"/><use xlink:href="#5" y="2.171"/><use xlink:href="#6" y="4.342"/><use xlink:href="#7" y="6.513"/><use xlink:href="#8" y="8.684"/><use xlink:href="#7" y="10.855"/><use xlink:href="#9" y="13.026"/><use xlink:href="#10" y="15.197"/><use xlink:href="#11" y="17.368"/><use xlink:href="#12" y="19.539"/><use xlink:href="#1" y="21.71"/><use xlink:href="#1" y="23.881"/><text y="27.722" class="f">[puru@blackhole</text><text x="16.032" y="27.722" class="f">~]$</text><text x="20.04" y="27.722" class="f">ssl-handshake</text><text x="34.068" y="27.722" class="f">-c</text><text x="37.074" y="27.722" class="f">3</text><text x="39.078" y="27.722" class="f">ima</text></svg><svg x="7296"><use xlink:href="#a"/><use xlink:href="#b" x="42.996" y="26.027"/><use xlink:href="#4"/><use xlink:href="#5" y="2.171"/><use xlink:href="#6" y="4.342"/><use xlink:href="#7" y="6.513"/><use xlink:href="#8" y="8.684"/><use xlink:href="#7" y="10.855"/><use xlink:href="#9" y="13.026"/><use xlink:href="#10" y="15.197"/><use xlink:href="#11" y="17.368"/><use xlink:href="#12" y="19.539"/><use xlink:href="#1" y="21.71"/><use xlink:href="#1" y="23.881"/><text y="27.722" class="f">[puru@blackhole</text><text x="16.032" y="27.722" class="f">~]$</text><text x="20.04" y="27.722" class="f">ssl-handshake</text><text x="34.068" y="27.722" class="f">-c</text><text x="37.074" y="27.722" class="f">3</text><text x="39.078" y="27.722" class="f">imap</text></svg><svg x="7410"><use xlink:href="#a"/><use xlink:href="#b" x="43.996" y="26.027"/><use xlink:href="#4"/><use xlink:href="#5" y="2.171"/><use xlink:href="#6" y="4.342"/><use xlink:href="#7" y="6.513"/><use xlink:href="#8" y="8.684"/><use xlink:href="#7" y="10.855"/><use xlink:href="#9" y="13.026"/><use xlink:href="#10" y="15.197"/><use xlink:href="#11" y="17.368"/><use xlink:href="#12" y="19.539"/><use xlink:href="#1" y="21.71"/><use xlink:href="#1" y="23.881"/><text y="27.722" class="f">[puru@blackhole</text><text x="16.032" y="27.722" class="f">~]$</text><text x="20.04" y="27.722" class="f">ssl-handshake</text><text x="34.068" y="27.722" class="f">-c</text><text x="37.074" y="27.722" class="f">3</text><text x="39.078" y="27.722" class="f">imap.</text></svg><svg x="7524"><use xlink:href="#a"/><use xlink:href="#b" x="44.996" y="26.027"/><use xlink:href="#4"/><use xlink:href="#5" y="2.171"/><use xlink:href="#6" y="4.342"/><use xlink:href="#7" y="6.513"/><use xlink:href="#8" y="8.684"/><use xlink:href="#7" y="10.855"/><use xlink:href="#9" y="13.026"/><use xlink:href="#10" y="15.197"/><use xlink:href="#11" y="17.368"/><use xlink:href="#12" y="19.539"/><use xlink:href="#1" y="21.71"/><use xlink:href="#1" y="23.881"/><text y="27.722" class="f">[puru@blackhole</text><text x="16.032" y="27.722" class="f">~]$</text><text x="20.04" y="27.722" class="f">ssl-handshake</text><text x="34.068" y="27.722" class="f">-c</text><text x="37.074" y="27.722" class="f">3</text><text x="39.078" y="27.722" class="f">imap.g</text></svg><svg x="7638"><use xlink:href="#a"/><use xlink:href="#b" x="45.996" y="26.027"/><use xlink:href="#4"/><use xlink:href="#5" y="2.171"/><use xlink:href="#6" y="4.342"/><use xlink:href="#7" y="6.513"/><use xlink:href="#8" y="8.684"/><use xlink:href="#7" y="10.855"/><use xlink:href="#9" y="13.026"/><use xlink:href="#10" y="15.197"/><use xlink:href="#11" y="17.368"/><use xlink:href="#12" y="19.539"/><use xlink:href="#1" y="21.71"/><use xlink:href="#1" y="23.881"/><text y="27.722" class="f">[puru@blackhole</text><text x="16.032" y="27.722" class="f">~]$</text><text x="20.04" y="27.722" class="f">ssl-handshake</text><text x="34.068" y="27.722" class="f">-c</text><text x="37.074" y="27.722" class="f">3</text><text x="39.078" y="27.722" class="f">imap.gm</text></svg><svg x="7752"><use xlink:href="#a"/><use xlink:href="#b" x="46.996" y="26.027"/><use xlink:href="#4"/><use xlink:href="#5" y="2.171"/><use xlink:href="#6" y="4.342"/><use xlink:href="#7" y="6.513"/><use xlink:href="#8" y="8.684"/><use xlink:href="#7" y="10.855"/><use xlink:href="#9" y="13.026"/><use xlink:href="#10" y="15.197"/><use xlink:href="#11" y="17.368"/><use xlink:href="#12" y="19.539"/><use xlink:href="#1" y="21.71"/><use xlink:href="#1" y="23.881"/><text y="27.722" class="f">[puru@blackhole</text><text x="16.032" y="27.722" class="f">~]$</text><text x="20.04" y="27.722" class="f">ssl-handshake</text><text x="34.068" y="27.722" class="f">-c</text><text x="37.074" y="27.722" class="f">3</text><text x="39.078" y="27.722" class="f">imap.gma</text></svg><svg x="7866"><use xlink:href="#a"/><use xlink:href="#b" x="47.996" y="26.027"/><use xlink:href="#4"/><use xlink:href="#5" y="2.171"/><use xlink:href="#6" y="4.342"/><use xlink:href="#7" y="6.513"/><use xlink:href="#8" y="8.684"/><use xlink:href="#7" y="10.855"/><use xlink:href="#9" y="13.026"/><use xlink:href="#10" y="15.197"/><use xlink:href="#11" y="17.368"/><use xlink:href="#12" y="19.539"/><use xlink:href="#1" y="21.71"/><use xlink:href="#1" y="23.881"/><text y="27.722" class="f">[puru@blackhole</text><text x="16.032" y="27.722" class="f">~]$</text><text x="20.04" y="27.722" class="f">ssl-handshake</text><text x="34.068" y="27.722" class="f">-c</text><text x="37.074" y="27.722" class="f">3</text><text x="39.078" y="27.722" class="f">imap.gmai</text></svg><svg x="7980"><use xlink:href="#a"/><use xlink:href="#b" x="48.996" y="26.027"/><use xlink:href="#4"/><use xlink:href="#5" y="2.171"/><use xlink:href="#6" y="4.342"/><use xlink:href="#7" y="6.513"/><use xlink:href="#8" y="8.684"/><use xlink:href="#7" y="10.855"/><use xlink:href="#9" y="13.026"/><use xlink:href="#10" y="15.197"/><use xlink:href="#11" y="17.368"/><use xlink:href="#12" y="19.539"/><use xlink:href="#1" y="21.71"/><use xlink:href="#1" y="23.881"/><text y="27.722" class="f">[puru@blackhole</text><text x="16.032" y="27.722" class="f">~]$</text><text x="20.04" y="27.722" class="f">ssl-handshake</text><text x="34.068" y="27.722" class="f">-c</text><text x="37.074" y="27.722" class="f">3</text><text x="39.078" y="27.722" class="f">imap.gmail</text></svg><svg x="8094"><use xlink:href="#a"/><use xlink:href="#b" x="49.996" y="26.027"/><use xlink:href="#4"/><use xlink:href="#5" y="2.171"/><use xlink:href="#6" y="4.342"/><use xlink:href="#7" y="6.513"/><use xlink:href="#8" y="8.684"/><use xlink:href="#7" y="10.855"/><use xlink:href="#9" y="13.026"/><use xlink:href="#10" y="15.197"/><use xlink:href="#11" y="17.368"/><use xlink:href="#12" y="19.539"/><use xlink:href="#1" y="21.71"/><use xlink:href="#1" y="23.881"/><text y="27.722" class="f">[puru@blackhole</text><text x="16.032" y="27.722" class="f">~]$</text><text x="20.04" y="27.722" class="f">ssl-handshake</text><text x="34.068" y="27.722" class="f">-c</text><text x="37.074" y="27.722" class="f">3</text><text x="39.078" y="27.722" class="f">imap.gmail.</text></svg><svg x="8208"><use xlink:href="#a"/><use xlink:href="#b" x="50.996" y="26.027"/><use xlink:href="#4"/><use xlink:href="#5" y="2.171"/><use xlink:href="#6" y="4.342"/><use xlink:href="#7" y="6.513"/><use xlink:href="#8" y="8.684"/><use xlink:href="#7" y="10.855"/><use xlink:href="#9" y="13.026"/><use xlink:href="#10" y="15.197"/><use xlink:href="#11" y="17.368"/><use xlink:href="#12" y="19.539"/><use xlink:href="#1" y="21.71"/><use xlink:href="#1" y="23.881"/><text y="27.722" class="f">[puru@blackhole</text><text x="16.032" y="27.722" class="f">~]$</text><text x="20.04" y="27.722" class="f">ssl-handshake</text><text x="34.068" y="27.722" class="f">-c</text><text x="37.074" y="27.722" class="f">3</text><text x="39.078" y="27.722" class="f">imap.gmail.c</text></svg><svg x="8322"><use xlink:href="#a"/><use xlink:href="#b" x="51.996" y="26.027"/><use xlink:href="#4"/><use xlink:href="#5" y="2.171"/><use xlink:href="#6" y="4.342"/><use xlink:href="#7" y="6.513"/><use xlink:href="#8" y="8.684"/><use xlink:href="#7" y="10.855"/><use xlink:href="#9" y="13.026"/><use xlink:href="#10" y="15.197"/><use xlink:href="#11" y="17.368"/><use xlink:href="#12" y="19.539"/><use xlink:href="#1" y="21.71"/><use xlink:href="#1" y="23.881"/><text y="27.722" class="f">[puru@blackhole</text><text x="16.032" y="27.722" class="f">~]$</text><text x="20.04" y="27.722" class="f">ssl-handshake</text><text x="34.068" y="27.722" class="f">-c</text><text x="37.074" y="27.722" class="f">3</text><text x="39.078" y="27.722" class="f">imap.gmail.co</text></svg><svg x="8436"><use xlink:href="#a"/><use xlink:href="#b" x="52.996" y="26.027"/><use xlink:href="#4"/><use xlink:href="#5" y="2.171"/><use xlink:href="#6" y="4.342"/><use xlink:href="#7" y="6.513"/><use xlink:href="#8" y="8.684"/><use xlink:href="#7" y="10.855"/><use xlink:href="#9" y="13.026"/><use xlink:href="#10" y="15.197"/><use xlink:href="#11" y="17.368"/><use xlink:href="#12" y="19.539"/><use xlink:href="#1" y="21.71"/><use xlink:href="#1" y="23.881"/><text y="27.722" class="f">[puru@blackhole</text><text x="16.032" y="27.722" class="f">~]$</text><text x="20.04" y="27.722" class="f">ssl-handshake</text><text x="34.068" y="27.722" class="f">-c</text><text x="37.074" y="27.722" class="f">3</text><text x="39.078" y="27.722" class="f">imap.gmail.com</text></svg><svg x="8550"><use xlink:href="#a"/><use xlink:href="#b" x="53.996" y="26.027"/><use xlink:href="#4"/><use xlink:href="#5" y="2.171"/><use xlink:href="#6" y="4.342"/><use xlink:href="#7" y="6.513"/><use xlink:href="#8" y="8.684"/><use xlink:href="#7" y="10.855"/><use xlink:href="#9" y="13.026"/><use xlink:href="#10" y="15.197"/><use xlink:href="#11" y="17.368"/><use xlink:href="#12" y="19.539"/><use xlink:href="#1" y="21.71"/><use xlink:href="#1" y="23.881"/><text y="27.722" class="f">[puru@blackhole</text><text x="16.032" y="27.722" class="f">~]$</text><text x="20.04" y="27.722" class="f">ssl-handshake</text><text x="34.068" y="27.722" class="f">-c</text><text x="37.074" y="27.722" class="f">3</text><text x="39.078" y="27.722" class="f">imap.gmail.com:</text></svg><svg x="8664"><use xlink:href="#a"/><use xlink:href="#b" x="54.996" y="26.027"/><use xlink:href="#4"/><use xlink:href="#5" y="2.171"/><use xlink:href="#6" y="4.342"/><use xlink:href="#7" y="6.513"/><use xlink:href="#8" y="8.684"/><use xlink:href="#7" y="10.855"/><use xlink:href="#9" y="13.026"/><use xlink:href="#10" y="15.197"/><use xlink:href="#11" y="17.368"/><use xlink:href="#12" y="19.539"/><use xlink:href="#1" y="21.71"/><use xlink:href="#1" y="23.881"/><text y="27.722" class="f">[puru@blackhole</text><text x="16.032" y="27.722" class="f">~]$</text><text x="20.04" y="27.722" class="f">ssl-handshake</text><text x="34.068" y="27.722" class="f">-c</text><text x="37.074" y="27.722" class="f">3</text><text x="39.078" y="27.722" class="f">imap.gmail.com:9</text></svg><svg x="8778"><use xlink:href="#a"/><use xlink:href="#b" x="55.996" y="26.027"/><use xlink:href="#4"/><use xlink:href="#5" y="2.171"/><use xlink:href="#6" y="4.342"/><use xlink:href="#7" y="6.513"/><use xlink:href="#8" y="8.684"/><use xlink:href="#7" y="10.855"/><use xlink:href="#9" y="13.026"/><use xlink:href="#10" y="15.197"/><use xlink:href="#11" y="17.368"/><use xlink:href="#12" y="19.539"/><use xlink:href="#1" y="21.71"/><use xlink:href="#1" y="23.881"/><text y="27.722" class="f">[puru@blackhole</text><text x="16.032" y="27.722" class="f">~]$</text><text x="20.04" y="27.722" class="f">ssl-handshake</text><text x="34.068" y="27.722" class="f">-c</text><text x="37.074" y="27.722" class="f">3</text><text x="39.078" y="27.722" class="f">imap.gmail.com:99</text></svg><svg x="8892"><use xlink:href="#a"/><use xlink:href="#b" x="56.996" y="26.027"/><use xlink:href="#4"/><use xlink:href="#5" y="2.171"/><use xlink:href="#6" y="4.342"/><use xlink:href="#7" y="6.513"/><use xlink:href="#8" y="8.684"/><use xlink:href="#7" y="10.855"/><use xlink:href="#9" y="13.026"/><use xlink:href="#10" y="15.197"/><use xlink:href="#11" y="17.368"/><use xlink:href="#12" y="19.539"/><use xlink:href="#1" y="21.71"/><use xlink:href="#1" y="23.881"/><use xlink:href="#15" y="26.052"/></svg><svg x="9006"><use xlink:href="#a"/><use xlink:href="#b" x="-.004" y="28.198"/><use xlink:href="#4"/><use xlink:href="#5" y="2.171"/><use xlink:href="#6" y="4.342"/><use xlink:href="#7" y="6.513"/><use xlink:href="#8" y="8.684"/><use xlink:href="#7" y="10.855"/><use xlink:href="#9" y="13.026"/><use xlink:href="#10" y="15.197"/><use xlink:href="#11" y="17.368"/><use xlink:href="#12" y="19.539"/><use xlink:href="#1" y="21.71"/><use xlink:href="#1" y="23.881"/><use xlink:href="#15" y="26.052"/></svg><svg x="9120"><use xlink:href="#a"/><use xlink:href="#b" x="-.004" y="30.369"/><use xlink:href="#4"/><use xlink:href="#5" y="2.171"/><use xlink:href="#6" y="4.342"/><use xlink:href="#7" y="6.513"/><use xlink:href="#8" y="8.684"/><use xlink:href="#7" y="10.855"/><use xlink:href="#9" y="13.026"/><use xlink:href="#10" y="15.197"/><use xlink:href="#11" y="17.368"/><use xlink:href="#12" y="19.539"/><use xlink:href="#1" y="21.71"/><use xlink:href="#1" y="23.881"/><use xlink:href="#15" y="26.052"/><use xlink:href="#16" y="28.223"/></svg><svg x="9234"><use xlink:href="#a"/><use xlink:href="#b" x="-.004" y="32.54"/><use xlink:href="#4"/><use xlink:href="#5" y="2.171"/><use xlink:href="#6" y="4.342"/><use xlink:href="#7" y="6.513"/><use xlink:href="#8" y="8.684"/><use xlink:href="#7" y="10.855"/><use xlink:href="#9" y="13.026"/><use xlink:href="#10" y="15.197"/><use xlink:href="#11" y="17.368"/><use xlink:href="#12" y="19.539"/><use xlink:href="#1" y="21.71"/><use xlink:href="#1" y="23.881"/><use xlink:href="#15" y="26.052"/><use xlink:href="#16" y="28.223"/><use xlink:href="#17" y="30.394"/></svg><svg x="9348"><use xlink:href="#a"/><use xlink:href="#b" x="-.004" y="34.711"/><use xlink:href="#4"/><use xlink:href="#5" y="2.171"/><use xlink:href="#6" y="4.342"/><use xlink:href="#7" y="6.513"/><use xlink:href="#8" y="8.684"/><use xlink:href="#7" y="10.855"/><use xlink:href="#9" y="13.026"/><use xlink:href="#10" y="15.197"/><use xlink:href="#11" y="17.368"/><use xlink:href="#12" y="19.539"/><use xlink:href="#1" y="21.71"/><use xlink:href="#1" y="23.881"/><use xlink:href="#15" y="26.052"/><use xlink:href="#16" y="28.223"/><use xlink:href="#17" y="30.394"/><use xlink:href="#18" y="32.565"/></svg><svg x="9462"><use xlink:href="#a"/><use xlink:href="#b" x="-.004" y="45.566"/><use xlink:href="#4"/><use xlink:href="#5" y="2.171"/><use xlink:href="#6" y="4.342"/><use xlink:href="#7" y="6.513"/><use xlink:href="#8" y="8.684"/><use xlink:href="#7" y="10.855"/><use xlink:href="#9" y="13.026"/><use xlink:href="#10" y="15.197"/><use xlink:href="#11" y="17.368"/><use xlink:href="#12" y="19.539"/><use xlink:href="#1" y="21.71"/><use xlink:href="#1" y="23.881"/><use xlink:href="#15" y="26.052"/><use xlink:href="#16" y="28.223"/><use xlink:href="#17" y="30.394"/><use xlink:href="#18" y="32.565"/><use xlink:href="#18" y="34.736"/><use xlink:href="#19" y="39.078"/><use xlink:href="#20" y="41.249"/><use xlink:href="#21" y="43.42"/></svg><svg x="9576"><use xlink:href="#a"/><use xlink:href="#b" x="19.996" y="45.566"/><use xlink:href="#4"/><use xlink:href="#5" y="2.171"/><use xlink:href="#6" y="4.342"/><use xlink:href="#7" y="6.513"/><use xlink:href="#8" y="8.684"/><use xlink:href="#7" y="10.855"/><use xlink:href="#9" y="13.026"/><use xlink:href="#10" y="15.197"/><use xlink:href="#11" y="17.368"/><use xlink:href="#12" y="19.539"/><use xlink:href="#1" y="21.71"/><use xlink:href="#1" y="23.881"/><use xlink:href="#15" y="26.052"/><use xlink:href="#16" y="28.223"/><use xlink:href="#17" y="30.394"/><use xlink:href="#18" y="32.565"/><use xlink:href="#18" y="34.736"/><use xlink:href="#19" y="39.078"/><use xlink:href="#20" y="41.249"/><use xlink:href="#21" y="43.42"/><use xlink:href="#1" y="45.591"/></svg><svg x="9690"><use xlink:href="#a"/><use xlink:href="#b" x="19.996" y="47.737"/><use xlink:href="#4"/><use xlink:href="#5" y="2.171"/><use xlink:href="#6" y="4.342"/><use xlink:href="#7" y="6.513"/><use xlink:href="#8" y="8.684"/><use xlink:href="#7" y="10.855"/><use xlink:href="#9" y="13.026"/><use xlink:href="#10" y="15.197"/><use xlink:href="#11" y="17.368"/><use xlink:href="#12" y="19.539"/><use xlink:href="#1" y="21.71"/><use xlink:href="#1" y="23.881"/><use xlink:href="#15" y="26.052"/><use xlink:href="#16" y="28.223"/><use xlink:href="#17" y="30.394"/><use xlink:href="#18" y="32.565"/><use xlink:href="#18" y="34.736"/><use xlink:href="#19" y="39.078"/><use xlink:href="#20" y="41.249"/><use xlink:href="#21" y="43.42"/><use xlink:href="#1" y="45.591"/><use xlink:href="#1" y="47.762"/></svg><svg x="9804"><use xlink:href="#a"/><use xlink:href="#b" x="-.004" y="49.908"/><use xlink:href="#4"/><use xlink:href="#5" y="2.171"/><use xlink:href="#6" y="4.342"/><use xlink:href="#7" y="6.513"/><use xlink:href="#8" y="8.684"/><use xlink:href="#7" y="10.855"/><use xlink:href="#9" y="13.026"/><use xlink:href="#10" y="15.197"/><use xlink:href="#11" y="17.368"/><use xlink:href="#12" y="19.539"/><use xlink:href="#1" y="21.71"/><use xlink:href="#1" y="23.881"/><use xlink:href="#15" y="26.052"/><use xlink:href="#16" y="28.223"/><use xlink:href="#17" y="30.394"/><use xlink:href="#18" y="32.565"/><use xlink:href="#18" y="34.736"/><use xlink:href="#19" y="39.078"/><use xlink:href="#20" y="41.249"/><use xlink:href="#21" y="43.42"/><use xlink:href="#1" y="45.591"/><text y="49.432" class="f">[puru@blackhole</text><text x="16.032" y="49.432" class="f">~]$</text><text x="20.04" y="49.432" class="f">exit</text></svg></svg></g></g></svg></svg>